<svg width="24" height="24" viewBox="0 0 24 24" fill="currentColor" xmlns="http://www.w3.org/2000/svg">
<path fill-rule="evenodd" clip-rule="evenodd" d="M13.75 4.5C13.75 4.08579 14.0858 3.75 14.5 3.75H19.5C19.9142 3.75 20.25 4.08579 20.25 4.5V9.5C20.25 9.91421 19.9142 10.25 19.5 10.25C19.0858 10.25 18.75 9.91421 18.75 9.5V6.31066L10.8637 14.197C10.5708 14.4899 10.0959 14.4899 9.803 14.197C9.51011 13.9041 9.51011 13.4292 9.803 13.1363L17.6893 5.25H14.5C14.0858 5.25 13.75 4.91421 13.75 4.5ZM6.16667 7.75C5.66421 7.75 5.25 8.16421 5.25 8.66667V17.8333C5.25 18.0764 5.34658 18.3096 5.51849 18.4815C5.69039 18.6534 5.92355 18.75 6.16667 18.75H15.3333C15.5764 18.75 15.8096 18.6534 15.9815 18.4815C16.1534 18.3096 16.25 18.0764 16.25 17.8333V13.6667C16.25 13.2525 16.5858 12.9167 17 12.9167C17.4142 12.9167 17.75 13.2525 17.75 13.6667V17.8333C17.75 18.4743 17.4954 19.089 17.0422 19.5422C16.589 19.9954 15.9743 20.25 15.3333 20.25H6.16667C5.52573 20.25 4.91104 19.9954 4.45783 19.5422C4.00461 19.089 3.75 18.4743 3.75 17.8333V8.66667C3.75 7.33579 4.83579 6.25 6.16667 6.25H10.3333C10.7475 6.25 11.0833 6.58579 11.0833 7C11.0833 7.41421 10.7475 7.75 10.3333 7.75H6.16667Z"/>
</svg>
