<svg width="32" height="32" viewBox="0 0 32 32" fill="none" xmlns="http://www.w3.org/2000/svg">
<g clip-path="url(#clip0_402_100)">
<path fill-rule="evenodd" clip-rule="evenodd" d="M16 0C7.1641 0 0 7.34595 0 16.4061C0 23.6543 4.58354 29.8049 10.9422 31.9728C11.7423 32.125 12.0364 31.6169 12.0364 31.1823C12.0364 30.7911 12.0205 29.4979 12.0152 28.1287C7.56417 29.1203 6.62626 26.1944 6.62626 26.1944C5.89766 24.2982 4.85113 23.7929 4.85113 23.7929C3.39924 22.7741 4.95976 22.7958 4.95976 22.7958C6.56532 22.9126 7.41315 24.4856 7.41315 24.4856C8.8412 26.9931 11.1568 26.2678 12.0682 25.8494C12.2113 24.7899 12.6273 24.0645 13.083 23.6543C9.53005 23.2386 5.79434 21.8314 5.79434 15.5477C5.79434 13.7574 6.41961 12.2931 7.44229 11.1439C7.27538 10.731 6.72959 9.06291 7.59596 6.80261C7.59596 6.80261 8.93923 6.36251 11.9967 8.48425C13.2737 8.12021 14.6408 7.93819 16.0026 7.93276C17.3618 7.93819 18.7316 8.12021 20.0113 8.48425C23.0661 6.36251 24.4067 6.80261 24.4067 6.80261C25.2784 9.06291 24.7299 10.731 24.563 11.1439C25.5883 12.2931 26.2083 13.7574 26.2083 15.5477C26.2083 21.8477 22.4646 23.2359 18.9038 23.6434C19.4787 24.1515 19.9901 25.1512 19.9901 26.6807C19.9901 28.8758 19.9715 30.6416 19.9715 31.1823C19.9715 31.6197 20.2603 32.1304 21.071 31.9701C27.4244 29.7995 32.0026 23.6516 32.0026 16.4061C32 7.34595 24.8359 0 16 0Z" fill="#181717"/>
<path d="M6.05931 23.5536C6.02487 23.6351 5.89769 23.6596 5.78377 23.6025C5.66719 23.5482 5.6036 23.4368 5.6407 23.3553C5.67514 23.2711 5.79966 23.2493 5.91624 23.3037C6.03281 23.358 6.09905 23.4694 6.05931 23.5509V23.5536Z" fill="#181717"/>
<path d="M6.70837 24.2953C6.63153 24.3687 6.48316 24.3334 6.38249 24.2193C6.27651 24.1052 6.25796 23.953 6.3348 23.8797C6.41428 23.8063 6.55735 23.8416 6.66333 23.9557C6.7693 24.0726 6.78785 24.222 6.70837 24.2953Z" fill="#181717"/>
<path d="M7.33897 25.2408C7.24094 25.3114 7.07933 25.2462 6.9813 25.0995C6.88327 24.9528 6.88327 24.7789 6.9813 24.7083C7.07933 24.6377 7.23829 24.7001 7.33897 24.8468C7.437 24.9963 7.437 25.1701 7.33897 25.2408Z" fill="#181717"/>
<path d="M8.20265 26.1539C8.11522 26.2544 7.92711 26.2273 7.79199 26.0914C7.65157 25.9583 7.61448 25.7709 7.70191 25.6731C7.79199 25.5725 7.97745 25.6024 8.11522 25.7355C8.25299 25.8687 8.29538 26.0561 8.20265 26.1539Z" fill="#181717"/>
<path d="M9.39496 26.6832C9.35522 26.8109 9.17506 26.8707 8.9949 26.8163C8.81473 26.7593 8.69551 26.6098 8.7326 26.4794C8.76969 26.349 8.94985 26.2893 9.13267 26.3463C9.31283 26.4034 9.43205 26.5528 9.39496 26.6832Z" fill="#181717"/>
<path d="M10.7038 26.7811C10.7091 26.9169 10.5554 27.0283 10.3647 27.031C10.1739 27.0365 10.0176 26.9251 10.0176 26.792C10.0176 26.6561 10.1686 26.5448 10.3594 26.542C10.5501 26.5393 10.7064 26.648 10.7064 26.7811H10.7038Z" fill="#181717"/>
<path d="M11.9225 26.5695C11.9464 26.7026 11.8139 26.8357 11.6231 26.8737C11.4377 26.909 11.2655 26.8275 11.2416 26.6971C11.2178 26.5613 11.3529 26.4255 11.5384 26.3902C11.7265 26.3576 11.896 26.4363 11.9199 26.5695H11.9225Z" fill="#181717"/>
</g>
<defs>
<clipPath id="clip0_402_100">
<rect width="32" height="32" fill="white"/>
</clipPath>
</defs>
</svg>
